<svg width="32" height="35" viewBox="0 0 32 35" fill="none" xmlns="http://www.w3.org/2000/svg">
<path d="M32 28.3333V30H0V28.3333L3.55556 25V15C3.55556 9.83333 7.16444 5.28333 12.4444 3.81667C12.4444 3.65 12.4444 3.5 12.4444 3.33333C12.4444 2.44928 12.819 1.60143 13.4858 0.976311C14.1526 0.351189 15.057 0 16 0C16.943 0 17.8474 0.351189 18.5142 0.976311C19.181 1.60143 19.5556 2.44928 19.5556 3.33333C19.5556 3.5 19.5556 3.65 19.5556 3.81667C24.8356 5.28333 28.4444 9.83333 28.4444 15V25L32 28.3333ZM19.5556 31.6667C19.5556 32.5507 19.181 33.3986 18.5142 34.0237C17.8474 34.6488 16.943 35 16 35C15.057 35 14.1526 34.6488 13.4858 34.0237C12.819 33.3986 12.4444 32.5507 12.4444 31.6667" fill="white"/>
</svg>
