<svg width="39" height="39" viewBox="0 0 39 39" fill="none" xmlns="http://www.w3.org/2000/svg">
<path d="M5.2002 5.19824L34.0002 33.9982" stroke="#28a9df" stroke-width="2.4" stroke-linecap="round" stroke-linejoin="round"/>
<path d="M17.3342 17.3369C16.7338 17.9369 16.3963 18.7509 16.396 19.5998C16.3957 20.4486 16.7326 21.2629 17.3326 21.8633C17.9327 22.4638 18.7466 22.8013 19.5955 22.8016C20.4444 22.8019 21.2586 22.4649 21.859 21.8649" stroke="#28a9df" stroke-width="2.4" stroke-linecap="round" stroke-linejoin="round"/>
<path d="M15.3809 8.98253C16.7528 8.59009 18.1732 8.39348 19.6001 8.39853C26.0001 8.39853 31.3329 12.1313 35.6001 19.5985C34.3553 21.7761 33.0209 23.6369 31.5953 25.1793M28.1713 28.1569C25.5617 29.9169 22.7073 30.7985 19.6001 30.7985C13.2001 30.7985 7.8673 27.0657 3.6001 19.5985C5.7905 15.7665 8.2609 12.9185 11.0113 11.0529" stroke="#28a9df" stroke-width="2.4" stroke-linecap="round" stroke-linejoin="round"/>
</svg>
