<svg width="39" height="39" viewBox="0 0 39 39" fill="none" xmlns="http://www.w3.org/2000/svg">
<path d="M27.8001 17.998H11.8001C10.0328 17.998 8.6001 19.4307 8.6001 21.198V30.798C8.6001 32.5654 10.0328 33.998 11.8001 33.998H27.8001C29.5674 33.998 31.0001 32.5654 31.0001 30.798V21.198C31.0001 19.4307 29.5674 17.998 27.8001 17.998Z" stroke="#28a9df" stroke-width="2.4" stroke-linecap="round" stroke-linejoin="round"/>
<path d="M19.8002 27.5984C20.6839 27.5984 21.4002 26.8821 21.4002 25.9984C21.4002 25.1148 20.6839 24.3984 19.8002 24.3984C18.9165 24.3984 18.2002 25.1148 18.2002 25.9984C18.2002 26.8821 18.9165 27.5984 19.8002 27.5984Z" stroke="#28a9df" stroke-width="3.2" stroke-linecap="round" stroke-linejoin="round"/>
<path d="M13.3999 17.9982V11.5982C13.3999 9.90086 14.0742 8.27299 15.2744 7.07276C16.4747 5.87253 18.1025 5.19824 19.7999 5.19824C21.4973 5.19824 23.1252 5.87253 24.3254 7.07276C25.5256 8.27299 26.1999 9.90086 26.1999 11.5982V17.9982" stroke="#28a9df" stroke-width="2.4" stroke-linecap="round" stroke-linejoin="round"/>
</svg>
