<svg width="28" height="28" viewBox="0 0 28 28" fill="none" xmlns="http://www.w3.org/2000/svg">
<path d="M28 24.8889V3.11111C28 1.4 26.6 0 24.8889 0H3.11111C1.4 0 0 1.4 0 3.11111V24.8889C0 26.6 1.4 28 3.11111 28H24.8889C26.6 28 28 26.6 28 24.8889ZM9.17778 17.08L12.4444 21.0156L17.2667 14.8089C17.5778 14.4044 18.2 14.4044 18.5111 14.8244L23.9711 22.1044C24.0578 22.22 24.1106 22.3574 24.1235 22.5013C24.1365 22.6451 24.1092 22.7898 24.0446 22.9189C23.98 23.0481 23.8807 23.1568 23.7578 23.2327C23.6349 23.3087 23.4933 23.3489 23.3489 23.3489H4.69778C4.04444 23.3489 3.68667 22.6022 4.09111 22.0889L7.96444 17.1111C8.26 16.7067 8.85111 16.6911 9.17778 17.08Z" fill="white"/>
</svg>
