<svg width="38" height="28" viewBox="0 0 38 28" fill="none" xmlns="http://www.w3.org/2000/svg">
<path d="M5.06667 26.6V27.8667H7.6V26.6H5.06667ZM17.7333 26.6V27.8667H20.2667V26.6H17.7333ZM7.6 26.6V25.3333H5.06667V26.6H7.6ZM17.7333 25.3333V26.6H20.2667V25.3333H17.7333ZM12.6667 20.2667C14.0104 20.2667 15.2992 20.8005 16.2493 21.7507C17.1995 22.7008 17.7333 23.9896 17.7333 25.3333H20.2667C20.2667 23.3177 19.466 21.3846 18.0407 19.9593C16.6154 18.534 14.6823 17.7333 12.6667 17.7333V20.2667ZM7.6 25.3333C7.6 23.9896 8.13381 22.7008 9.08399 21.7507C10.0342 20.8005 11.3229 20.2667 12.6667 20.2667V17.7333C10.651 17.7333 8.71793 18.534 7.29266 19.9593C5.86738 21.3846 5.06667 23.3177 5.06667 25.3333H7.6ZM12.6667 5.06667C11.3229 5.06667 10.0342 5.60047 9.08399 6.55066C8.13381 7.50084 7.6 8.78957 7.6 10.1333H10.1333C10.1333 9.46145 10.4002 8.81709 10.8753 8.342C11.3504 7.8669 11.9948 7.6 12.6667 7.6V5.06667ZM17.7333 10.1333C17.7333 8.78957 17.1995 7.50084 16.2493 6.55066C15.2992 5.60047 14.0104 5.06667 12.6667 5.06667V7.6C13.3385 7.6 13.9829 7.8669 14.458 8.342C14.9331 8.81709 15.2 9.46145 15.2 10.1333H17.7333ZM12.6667 15.2C14.0104 15.2 15.2992 14.6662 16.2493 13.716C17.1995 12.7658 17.7333 11.4771 17.7333 10.1333H15.2C15.2 10.8052 14.9331 11.4496 14.458 11.9247C13.9829 12.3998 13.3385 12.6667 12.6667 12.6667V15.2ZM12.6667 12.6667C11.9948 12.6667 11.3504 12.3998 10.8753 11.9247C10.4002 11.4496 10.1333 10.8052 10.1333 10.1333H7.6C7.6 11.4771 8.13381 12.7658 9.08399 13.716C10.0342 14.6662 11.3229 15.2 12.6667 15.2V12.6667ZM3.8 2.53333H34.2V0H3.8V2.53333ZM35.4667 3.8V24.0667H38V3.8H35.4667ZM34.2 25.3333H3.8V27.8667H34.2V25.3333ZM2.53333 24.0667V3.8H0V24.0667H2.53333ZM3.8 25.3333C3.46406 25.3333 3.14188 25.1999 2.90433 24.9623C2.66679 24.7248 2.53333 24.4026 2.53333 24.0667H0C0 25.0745 0.400356 26.041 1.11299 26.7537C1.82563 27.4663 2.79218 27.8667 3.8 27.8667V25.3333ZM35.4667 24.0667C35.4667 24.4026 35.3332 24.7248 35.0957 24.9623C34.8581 25.1999 34.5359 25.3333 34.2 25.3333V27.8667C35.2078 27.8667 36.1744 27.4663 36.887 26.7537C37.5996 26.041 38 25.0745 38 24.0667H35.4667ZM34.2 2.53333C34.5359 2.53333 34.8581 2.66679 35.0957 2.90433C35.3332 3.14188 35.4667 3.46406 35.4667 3.8H38C38 2.79218 37.5996 1.82563 36.887 1.11299C36.1744 0.400356 35.2078 0 34.2 0V2.53333ZM3.8 0C2.79218 0 1.82563 0.400356 1.11299 1.11299C0.400356 1.82563 0 2.79218 0 3.8H2.53333C2.53333 3.46406 2.66679 3.14188 2.90433 2.90433C3.14188 2.66679 3.46406 2.53333 3.8 2.53333V0ZM22.8 10.1333H30.4V7.6H22.8V10.1333ZM22.8 17.7333H30.4V15.2H22.8V17.7333Z" fill="#28a9df"/>
</svg>
